{"title":"Seppuku / Harakiri (Masaki Kobayashi, 1962) HD 720p","uid":7594548,"size":5868129234,"categoryP":"video","categoryS":"hd___movies","magnet":"?xt=urn:btih:b204d6c698721ba7ca16fc3827705eb7cc879d49&amp;dn=Seppuku+%2F+Harakiri+%28Masaki+Kobayashi%2C+1962%29+HD+720p&amp;tr=udp%3A%2F%2Ftracker.openbittorrent.com%3A80&amp;tr=udp%3A%2F%2Fopen.demonii.com%3A1337&amp;tr=udp%3A%2F%2Ftracker.coppersurfer.tk%3A6969&amp;tr=udp%3A%2F%2Fexodus.desync.com%3A6969","seeders":0,"leechers":0,"uploader":"moonflux","files":-1,"time":1346648653,"description":"General \nComplete name : harakiri.1962.720p.bluray.x264-psychd.mkv \nFormat : Matroska \nFormat version : Version 2 \nFile size : 5.47 GiB \nDuration : 2h 13mn \nOverall bit rate : 5 882 Kbps \nWriting application : x264.exe \nWriting library : mkv2rls v1.4 (date: 2011 mar 29) \n\nVideo \nID : 1 \nFormat : AVC \nFormat/Info : Advanced Video Codec \nFormat profile : &lt;a class=&quot;__cf_email__&quot; href=&quot;/cdn-cgi/l/email-protection&quot; data-cfemail=&quot;1159787679515d253f20&quot;&gt;[email&amp;#160;protected]&lt;/a&gt;&lt;script data-cfhash='f9e31' type=&quot;text/javascript&quot;&gt;\n/* &lt;![CDATA[ */!function(){try{var t=&quot;currentScript&quot;in document?document.currentScript:function(){for(var t=document.getElementsByTagName(&quot;script&quot;),e=t.length;e--;)if(t[e].getAttribute(&quot;data-cfhash&quot;))return t[e]}();if(t&amp;&amp;t.previousSibling){var e,r,n,i,c=t.previousSibling,a=c.getAttribute(&quot;data-cfemail&quot;);if(a){for(e=&quot;&quot;,r=parseInt(a.substr(0,2),16),n=2;a.length-n;n+=2)i=parseInt(a.substr(n,2),16)^r,e+=String.fromCharCode(i);e=document.createTextNode(e),c.parentNode.replaceChild(e,c)}t.parentNode.removeChild(t);}}catch(u){}}()/* ]]&gt; */&lt;/script&gt; \nFormat settings, CABAC : Yes \nFormat settings, ReFrames : 5 frames \nCodec ID : V_MPEG4/ISO/AVC \nDuration : 2h 13mn \nBit rate : 5 240 Kbps \nWidth : 1 280 pixels \nHeight : 544 pixels \nDisplay aspect ratio : 2.35:1 \nFrame rate : 23.976 fps \nColor space : YUV \nChroma subsampling : 4:2:0 \nBit depth : 8 bits \nScan type : Progressive \nBits/(Pixel*Frame) : 0.314 \nStream size : 4.76 GiB (87%) \nWriting library : x264 core 118 r2085 8a62835 \nEncoding settings : cabac=1 / ref=5 / deblock=1:0:0 / analyse=0x3:0x113 / me=umh / subme=8 / psy=1 / psy_rd=1.00:0.00 / mixed_ref=1 / me_range=16 / chroma_me=1 / trellis=1 / 8x8dct=1 / cqm=0 / deadzone=21,11 / fast_pskip=1 / chroma_qp_offset=-2 / threads=12 / sliced_threads=0 / nr=0 / decimate=1 / interlaced=0 / bluray_compat=0 / constrained_intra=0 / bframes=3 / b_pyramid=2 / b_adapt=2 / b_bias=0 / direct=3 / weightb=1 / open_gop=0 / weightp=2 / keyint=240 / keyint_min=24 / scenecut=40 / intra_refresh=0 / rc_lookahead=50 / rc=2pass / mbtree=1 / bitrate=5240 / ratetol=1.0 / qcomp=0.60 / qpmin=0 / qpmax=69 / qpstep=4 / cplxblur=20.0 / qblur=0.5 / ip_ratio=1.40 / aq=1:1.00 \nLanguage : English \n\nAudio \nID : 2 \nFormat : AC-3 \nFormat/Info : Audio Coding 3 \nMode extension : CM (complete main) \nCodec ID : A_AC3 \nDuration : 2h 13mn \nBit rate mode : Constant \nBit rate : 640 Kbps \nChannel(s) : 1 channel \nChannel positions : Front: C \nSampling rate : 48.0 KHz \nBit depth : 16 bits \nCompression mode : Lossy \nStream size : 609 MiB (11%) \nLanguage : English \n\nText \nID : 3 \nFormat : UTF-8 \nCodec ID : S_TEXT/UTF8 \nCodec ID/Info : UTF-8 Plain Text \nLanguage : English ","torrent":{"xt":"urn:btih:b204d6c698721ba7ca16fc3827705eb7cc879d49","amp;dn":"Seppuku+%2F+Harakiri+%28Masaki+Kobayashi%2C+1962%29+HD+720p","amp;tr":["udp%3A%2F%2Ftracker.openbittorrent.com%3A80","udp%3A%2F%2Fopen.demonii.com%3A1337","udp%3A%2F%2Ftracker.coppersurfer.tk%3A6969","udp%3A%2F%2Fexodus.desync.com%3A6969"],"infoHash":"b204d6c698721ba7ca16fc3827705eb7cc879d49","infoHashBuffer":{"type":"Buffer","data":[178,4,214,198,152,114,27,167,202,22,252,56,39,112,94,183,204,135,157,73]},"announce":[],"urlList":[]}}